<svg xmlns="http://www.w3.org/2000/svg" xmlns:xlink="http://www.w3.org/1999/xlink" width="500" zoomAndPan="magnify" viewBox="0 0 375 374.999991" height="500" preserveAspectRatio="xMidYMid meet" version="1.0"><rect x="-37.5" width="450" fill="#ffffff" y="-37.499999" height="449.999989" fill-opacity="1"/><rect x="-37.5" width="450" fill="#ffffff" y="-37.499999" height="449.999989" fill-opacity="1"/><path fill="#000000" d="M 130.574219 0.242188 L 244.425781 0.242188 C 246.558594 0.242188 248.691406 0.292969 250.820312 0.398438 C 252.949219 0.503906 255.078125 0.660156 257.199219 0.867188 C 259.324219 1.078125 261.4375 1.339844 263.550781 1.652344 C 265.660156 1.964844 267.761719 2.328125 269.851562 2.746094 C 271.945312 3.160156 274.023438 3.628906 276.09375 4.148438 C 278.164062 4.664062 280.21875 5.234375 282.257812 5.851562 C 284.300781 6.472656 286.324219 7.140625 288.332031 7.859375 C 290.339844 8.578125 292.332031 9.347656 294.300781 10.164062 C 296.273438 10.980469 298.222656 11.84375 300.148438 12.753906 C 302.078125 13.667969 303.980469 14.625 305.863281 15.628906 C 307.746094 16.636719 309.601562 17.6875 311.429688 18.785156 C 313.257812 19.878906 315.058594 21.019531 316.832031 22.207031 C 318.605469 23.390625 320.351562 24.617188 322.0625 25.890625 C 323.777344 27.160156 325.457031 28.472656 327.105469 29.824219 C 328.753906 31.179688 330.371094 32.570312 331.949219 34.003906 C 333.53125 35.4375 335.074219 36.90625 336.582031 38.414062 C 338.09375 39.921875 339.5625 41.46875 340.996094 43.046875 C 342.425781 44.628906 343.820312 46.242188 345.171875 47.890625 C 346.527344 49.539062 347.839844 51.222656 349.109375 52.933594 C 350.378906 54.648438 351.605469 56.390625 352.792969 58.164062 C 353.976562 59.9375 355.117188 61.738281 356.214844 63.570312 C 357.3125 65.398438 358.363281 67.253906 359.367188 69.136719 C 360.371094 71.015625 361.332031 72.921875 362.242188 74.847656 C 363.15625 76.777344 364.019531 78.726562 364.835938 80.695312 C 365.652344 82.667969 366.417969 84.65625 367.136719 86.664062 C 367.855469 88.671875 368.527344 90.699219 369.144531 92.738281 C 369.765625 94.78125 370.332031 96.835938 370.851562 98.90625 C 371.371094 100.972656 371.835938 103.054688 372.253906 105.144531 C 372.667969 107.238281 373.035156 109.339844 373.347656 111.449219 C 373.660156 113.558594 373.921875 115.675781 374.128906 117.796875 C 374.339844 119.921875 374.496094 122.046875 374.601562 124.179688 C 374.703125 126.308594 374.757812 128.441406 374.757812 130.574219 L 374.757812 244.425781 C 374.757812 246.558594 374.703125 248.691406 374.601562 250.820312 C 374.496094 252.949219 374.339844 255.078125 374.128906 257.199219 C 373.921875 259.324219 373.660156 261.4375 373.347656 263.550781 C 373.035156 265.660156 372.667969 267.761719 372.253906 269.851562 C 371.835938 271.945312 371.371094 274.023438 370.851562 276.09375 C 370.332031 278.164062 369.765625 280.21875 369.144531 282.257812 C 368.527344 284.300781 367.855469 286.324219 367.136719 288.332031 C 366.417969 290.339844 365.652344 292.332031 364.835938 294.300781 C 364.019531 296.273438 363.15625 298.222656 362.242188 300.148438 C 361.332031 302.078125 360.371094 303.980469 359.367188 305.863281 C 358.363281 307.746094 357.3125 309.601562 356.214844 311.429688 C 355.117188 313.257812 353.976562 315.058594 352.792969 316.832031 C 351.605469 318.605469 350.378906 320.351562 349.109375 322.0625 C 347.839844 323.777344 346.527344 325.457031 345.171875 327.105469 C 343.820312 328.753906 342.425781 330.371094 340.996094 331.949219 C 339.5625 333.53125 338.09375 335.074219 336.582031 336.582031 C 335.074219 338.09375 333.53125 339.5625 331.949219 340.996094 C 330.371094 342.425781 328.753906 343.820312 327.105469 345.171875 C 325.457031 346.527344 323.777344 347.839844 322.0625 349.109375 C 320.351562 350.378906 318.605469 351.605469 316.832031 352.792969 C 315.058594 353.976562 313.257812 355.117188 311.429688 356.214844 C 309.601562 357.3125 307.746094 358.363281 305.863281 359.367188 C 303.980469 360.371094 302.078125 361.332031 300.148438 362.242188 C 298.222656 363.15625 296.273438 364.019531 294.300781 364.835938 C 292.332031 365.652344 290.339844 366.417969 288.332031 367.136719 C 286.324219 367.855469 284.300781 368.527344 282.257812 369.144531 C 280.21875 369.765625 278.164062 370.332031 276.09375 370.851562 C 274.023438 371.371094 271.945312 371.835938 269.851562 372.253906 C 267.761719 372.667969 265.660156 373.035156 263.550781 373.347656 C 261.4375 373.660156 259.324219 373.921875 257.199219 374.128906 C 255.078125 374.339844 252.949219 374.496094 250.820312 374.601562 C 248.691406 374.703125 246.558594 374.757812 244.425781 374.757812 L 130.574219 374.757812 C 128.441406 374.757812 126.308594 374.703125 124.179688 374.601562 C 122.046875 374.496094 119.921875 374.339844 117.796875 374.128906 C 115.675781 373.921875 113.558594 373.660156 111.449219 373.347656 C 109.339844 373.035156 107.238281 372.667969 105.144531 372.253906 C 103.054688 371.835938 100.972656 371.371094 98.90625 370.851562 C 96.835938 370.332031 94.78125 369.765625 92.738281 369.144531 C 90.699219 368.527344 88.671875 367.855469 86.664062 367.136719 C 84.65625 366.417969 82.667969 365.652344 80.695312 364.835938 C 78.726562 364.019531 76.777344 363.15625 74.847656 362.242188 C 72.921875 361.332031 71.015625 360.371094 69.136719 359.367188 C 67.253906 358.363281 65.398438 357.3125 63.570312 356.214844 C 61.738281 355.117188 59.9375 353.976562 58.164062 352.792969 C 56.390625 351.605469 54.648438 350.378906 52.933594 349.109375 C 51.222656 347.839844 49.539062 346.527344 47.890625 345.171875 C 46.242188 343.820312 44.628906 342.425781 43.046875 340.996094 C 41.46875 339.5625 39.921875 338.09375 38.414062 336.582031 C 36.90625 335.074219 35.4375 333.53125 34.003906 331.949219 C 32.570312 330.371094 31.179688 328.753906 29.824219 327.105469 C 28.472656 325.457031 27.160156 323.777344 25.890625 322.0625 C 24.617188 320.351562 23.390625 318.605469 22.207031 316.832031 C 21.019531 315.058594 19.878906 313.257812 18.785156 311.429688 C 17.6875 309.601562 16.636719 307.746094 15.628906 305.863281 C 14.625 303.980469 13.667969 302.078125 12.753906 300.148438 C 11.84375 298.222656 10.980469 296.273438 10.164062 294.300781 C 9.347656 292.332031 8.578125 290.339844 7.859375 288.332031 C 7.140625 286.324219 6.472656 284.300781 5.851562 282.257812 C 5.234375 280.21875 4.664062 278.164062 4.148438 276.09375 C 3.628906 274.023438 3.160156 271.945312 2.746094 269.851562 C 2.328125 267.761719 1.964844 265.660156 1.652344 263.550781 C 1.339844 261.4375 1.078125 259.324219 0.867188 257.199219 C 0.660156 255.078125 0.503906 252.949219 0.398438 250.820312 C 0.292969 248.691406 0.242188 246.558594 0.242188 244.425781 L 0.242188 130.574219 C 0.242188 128.441406 0.292969 126.308594 0.398438 124.179688 C 0.503906 122.046875 0.660156 119.921875 0.867188 117.796875 C 1.078125 115.675781 1.339844 113.558594 1.652344 111.449219 C 1.964844 109.339844 2.328125 107.238281 2.746094 105.144531 C 3.160156 103.054688 3.628906 100.972656 4.148438 98.90625 C 4.664062 96.835938 5.234375 94.78125 5.851562 92.738281 C 6.472656 90.699219 7.140625 88.671875 7.859375 86.664062 C 8.578125 84.65625 9.347656 82.667969 10.164062 80.695312 C 10.980469 78.726562 11.84375 76.777344 12.753906 74.847656 C 13.667969 72.921875 14.625 71.015625 15.628906 69.136719 C 16.636719 67.253906 17.6875 65.398438 18.785156 63.570312 C 19.878906 61.738281 21.019531 59.9375 22.207031 58.164062 C 23.390625 56.390625 24.617188 54.648438 25.890625 52.933594 C 27.160156 51.222656 28.472656 49.539062 29.824219 47.890625 C 31.179688 46.242188 32.570312 44.628906 34.003906 43.046875 C 35.4375 41.46875 36.90625 39.921875 38.414062 38.414062 C 39.921875 36.90625 41.46875 35.4375 43.046875 34.003906 C 44.628906 32.570312 46.242188 31.179688 47.890625 29.824219 C 49.539062 28.472656 51.222656 27.160156 52.933594 25.890625 C 54.648438 24.617188 56.390625 23.390625 58.164062 22.207031 C 59.9375 21.019531 61.738281 19.878906 63.570312 18.785156 C 65.398438 17.6875 67.253906 16.636719 69.136719 15.628906 C 71.015625 14.625 72.921875 13.667969 74.847656 12.753906 C 76.777344 11.84375 78.726562 10.980469 80.695312 10.164062 C 82.667969 9.347656 84.65625 8.578125 86.664062 7.859375 C 88.671875 7.140625 90.699219 6.472656 92.738281 5.851562 C 94.78125 5.234375 96.835938 4.664062 98.90625 4.148438 C 100.972656 3.628906 103.054688 3.160156 105.144531 2.746094 C 107.238281 2.328125 109.339844 1.964844 111.449219 1.652344 C 113.558594 1.339844 115.675781 1.078125 117.796875 0.867188 C 119.921875 0.660156 122.046875 0.503906 124.179688 0.398438 C 126.308594 0.292969 128.441406 0.242188 130.574219 0.242188 Z M 130.574219 0.242188 " fill-opacity="1" fill-rule="nonzero"/><path fill="#000000" d="M 187.5 75.433594 C 185.863281 75.433594 184.230469 75.515625 182.605469 75.675781 C 180.976562 75.835938 179.359375 76.074219 177.753906 76.394531 C 176.152344 76.710938 174.566406 77.109375 173 77.585938 C 171.433594 78.058594 169.898438 78.609375 168.386719 79.234375 C 166.875 79.863281 165.398438 80.558594 163.953125 81.332031 C 162.511719 82.101562 161.109375 82.941406 159.75 83.851562 C 158.390625 84.761719 157.078125 85.734375 155.8125 86.769531 C 154.546875 87.808594 153.339844 88.90625 152.179688 90.0625 C 151.023438 91.21875 149.925781 92.429688 148.890625 93.695312 C 147.851562 94.960938 146.878906 96.273438 145.96875 97.632812 C 145.0625 98.992188 144.222656 100.394531 143.449219 101.835938 C 142.679688 103.277344 141.980469 104.753906 141.355469 106.265625 C 140.726562 107.777344 140.179688 109.316406 139.703125 110.882812 C 139.226562 112.445312 138.832031 114.03125 138.511719 115.636719 C 138.191406 117.242188 137.953125 118.855469 137.792969 120.484375 C 137.632812 122.113281 137.550781 123.746094 137.550781 125.378906 C 137.550781 127.015625 137.632812 128.648438 137.792969 130.277344 C 137.953125 131.902344 138.191406 133.519531 138.511719 135.125 C 138.832031 136.730469 139.226562 138.3125 139.703125 139.878906 C 140.179688 141.445312 140.726562 142.984375 141.355469 144.496094 C 141.980469 146.003906 142.679688 147.484375 143.449219 148.925781 C 144.222656 150.367188 145.0625 151.769531 145.96875 153.128906 C 146.878906 154.488281 147.851562 155.800781 148.890625 157.066406 C 149.925781 158.332031 151.023438 159.542969 152.179688 160.699219 C 153.339844 161.855469 154.546875 162.953125 155.8125 163.988281 C 157.078125 165.027344 158.390625 166 159.75 166.910156 C 161.109375 167.820312 162.511719 168.660156 163.953125 169.429688 C 165.398438 170.199219 166.875 170.898438 168.386719 171.527344 C 169.898438 172.152344 171.433594 172.703125 173 173.175781 C 174.566406 173.652344 176.152344 174.046875 177.753906 174.367188 C 179.359375 174.6875 180.976562 174.925781 182.605469 175.085938 C 184.230469 175.246094 185.863281 175.328125 187.5 175.328125 C 189.136719 175.328125 190.765625 175.246094 192.394531 175.085938 C 194.023438 174.925781 195.640625 174.6875 197.242188 174.367188 C 198.847656 174.046875 200.433594 173.652344 201.996094 173.175781 C 203.5625 172.703125 205.101562 172.152344 206.613281 171.527344 C 208.125 170.898438 209.601562 170.199219 211.042969 169.429688 C 212.488281 168.660156 213.886719 167.820312 215.25 166.910156 C 216.609375 166 217.921875 165.027344 219.183594 163.988281 C 220.449219 162.953125 221.660156 161.855469 222.816406 160.699219 C 223.972656 159.542969 225.070312 158.332031 226.109375 157.066406 C 227.144531 155.800781 228.121094 154.488281 229.027344 153.128906 C 229.9375 151.769531 230.777344 150.367188 231.546875 148.925781 C 232.320312 147.484375 233.019531 146.003906 233.644531 144.496094 C 234.269531 142.984375 234.820312 141.445312 235.296875 139.878906 C 235.769531 138.3125 236.167969 136.730469 236.484375 135.125 C 236.804688 133.519531 237.046875 131.902344 237.207031 130.277344 C 237.367188 128.648438 237.445312 127.015625 237.445312 125.378906 C 237.445312 123.746094 237.363281 122.113281 237.203125 120.484375 C 237.042969 118.859375 236.804688 117.242188 236.484375 115.636719 C 236.164062 114.035156 235.765625 112.449219 235.292969 110.882812 C 234.816406 109.320312 234.265625 107.78125 233.640625 106.269531 C 233.011719 104.757812 232.316406 103.28125 231.542969 101.839844 C 230.773438 100.398438 229.933594 98.996094 229.023438 97.636719 C 228.113281 96.277344 227.140625 94.964844 226.101562 93.699219 C 225.066406 92.433594 223.96875 91.222656 222.8125 90.066406 C 221.65625 88.910156 220.445312 87.8125 219.179688 86.777344 C 217.917969 85.738281 216.605469 84.765625 215.242188 83.855469 C 213.882812 82.949219 212.484375 82.109375 211.039062 81.335938 C 209.597656 80.566406 208.121094 79.867188 206.609375 79.242188 C 205.097656 78.613281 203.5625 78.0625 201.996094 77.589844 C 200.429688 77.113281 198.847656 76.714844 197.242188 76.394531 C 195.636719 76.078125 194.023438 75.835938 192.394531 75.675781 C 190.765625 75.515625 189.136719 75.433594 187.5 75.433594 Z M 187.5 75.433594 " fill-opacity="1" fill-rule="nonzero"/><path fill="#000000" d="M 374.757812 220.492188 C 371.878906 224.800781 368.867188 229.019531 365.726562 233.144531 C 362.582031 237.269531 359.316406 241.292969 355.925781 245.214844 C 352.53125 249.136719 349.019531 252.949219 345.390625 256.652344 C 341.761719 260.355469 338.023438 263.941406 334.167969 267.414062 C 330.316406 270.882812 326.359375 274.230469 322.300781 277.457031 C 318.238281 280.679688 314.082031 283.777344 309.828125 286.742188 C 305.578125 289.707031 301.234375 292.539062 296.804688 295.234375 C 292.375 297.929688 287.867188 300.484375 283.28125 302.902344 C 278.691406 305.316406 274.03125 307.585938 269.304688 309.710938 C 264.574219 311.839844 259.785156 313.816406 254.929688 315.640625 C 250.078125 317.46875 245.175781 319.144531 240.21875 320.667969 C 235.261719 322.191406 230.261719 323.558594 225.21875 324.769531 C 220.179688 325.980469 215.105469 327.035156 209.996094 327.929688 C 204.890625 328.824219 199.761719 329.5625 194.605469 330.140625 C 189.453125 330.714844 184.289062 331.132812 179.109375 331.386719 C 173.929688 331.644531 168.75 331.738281 163.5625 331.671875 C 69.21875 331.671875 51.839844 314.648438 7.9375 288.617188 C 9.066406 291.75 10.3125 294.832031 11.679688 297.867188 C 13.042969 300.898438 14.523438 303.878906 16.117188 306.800781 C 17.710938 309.722656 19.414062 312.578125 21.226562 315.367188 C 23.039062 318.160156 24.953125 320.875 26.972656 323.519531 C 28.992188 326.164062 31.113281 328.730469 33.328125 331.210938 C 35.546875 333.691406 37.851562 336.085938 40.253906 338.390625 C 42.652344 340.699219 45.136719 342.90625 47.707031 345.023438 C 50.273438 347.136719 52.921875 349.152344 55.644531 351.066406 C 58.367188 352.976562 61.160156 354.785156 64.019531 356.480469 C 66.882812 358.179688 69.804688 359.769531 72.785156 361.242188 C 75.769531 362.71875 78.804688 364.078125 81.890625 365.320312 C 84.976562 366.5625 88.109375 367.6875 91.28125 368.691406 C 94.453125 369.691406 97.660156 370.574219 100.902344 371.332031 C 104.140625 372.089844 107.40625 372.722656 110.695312 373.230469 C 113.984375 373.738281 117.285156 374.117188 120.605469 374.375 C 123.921875 374.628906 127.246094 374.757812 130.574219 374.757812 L 244.425781 374.757812 C 246.558594 374.757812 248.691406 374.703125 250.820312 374.601562 C 252.949219 374.496094 255.078125 374.339844 257.199219 374.128906 C 259.324219 373.921875 261.4375 373.660156 263.550781 373.347656 C 265.660156 373.035156 267.761719 372.667969 269.851562 372.253906 C 271.945312 371.835938 274.023438 371.371094 276.09375 370.851562 C 278.164062 370.332031 280.21875 369.765625 282.257812 369.144531 C 284.300781 368.527344 286.324219 367.855469 288.332031 367.136719 C 290.339844 366.417969 292.332031 365.652344 294.300781 364.835938 C 296.273438 364.019531 298.222656 363.15625 300.148438 362.242188 C 302.078125 361.332031 303.980469 360.371094 305.863281 359.367188 C 307.746094 358.363281 309.601562 357.3125 311.429688 356.214844 C 313.257812 355.117188 315.058594 353.976562 316.832031 352.792969 C 318.605469 351.605469 320.351562 350.378906 322.0625 349.109375 C 323.777344 347.839844 325.457031 346.527344 327.105469 345.171875 C 328.753906 343.820312 330.371094 342.425781 331.949219 340.996094 C 333.53125 339.5625 335.074219 338.09375 336.582031 336.582031 C 338.09375 335.074219 339.5625 333.53125 340.996094 331.949219 C 342.425781 330.371094 343.820312 328.753906 345.171875 327.105469 C 346.527344 325.457031 347.839844 323.777344 349.109375 322.0625 C 350.378906 320.351562 351.605469 318.605469 352.792969 316.832031 C 353.976562 315.058594 355.117188 313.257812 356.214844 311.429688 C 357.3125 309.601562 358.363281 307.746094 359.367188 305.863281 C 360.371094 303.980469 361.332031 302.078125 362.242188 300.148438 C 363.15625 298.222656 364.019531 296.273438 364.835938 294.300781 C 365.652344 292.332031 366.417969 290.339844 367.136719 288.332031 C 367.855469 286.324219 368.527344 284.300781 369.144531 282.257812 C 369.765625 280.21875 370.332031 278.164062 370.851562 276.09375 C 371.371094 274.023438 371.835938 271.945312 372.253906 269.851562 C 372.667969 267.761719 373.035156 265.660156 373.347656 263.550781 C 373.660156 261.4375 373.921875 259.324219 374.128906 257.199219 C 374.339844 255.078125 374.496094 252.949219 374.601562 250.820312 C 374.703125 248.691406 374.757812 246.558594 374.757812 244.425781 Z M 374.757812 220.492188 " fill-opacity="1" fill-rule="nonzero"/><path fill="#000000" d="M 221.546875 187.5 C 221.1875 187.507812 220.835938 187.550781 220.484375 187.625 C 220.136719 187.703125 219.796875 187.816406 219.46875 187.960938 C 219.144531 188.101562 218.832031 188.277344 218.539062 188.484375 C 218.246094 188.6875 217.976562 188.921875 217.730469 189.179688 C 217.480469 189.4375 217.261719 189.71875 217.070312 190.019531 C 216.878906 190.320312 216.714844 190.636719 216.585938 190.972656 C 216.457031 191.304688 216.359375 191.648438 216.300781 192 C 216.238281 192.351562 216.210938 192.707031 216.21875 193.066406 C 216.1875 195.128906 215.980469 197.171875 215.597656 199.195312 C 215.214844 201.222656 214.660156 203.199219 213.933594 205.128906 C 213.210938 207.058594 212.324219 208.910156 211.277344 210.6875 C 210.230469 212.464844 209.042969 214.136719 207.707031 215.707031 C 206.363281 216.976562 204.902344 218.097656 203.332031 219.070312 C 201.757812 220.042969 200.101562 220.847656 198.363281 221.480469 C 196.628906 222.117188 194.84375 222.566406 193.011719 222.835938 C 191.183594 223.105469 189.34375 223.183594 187.5 223.078125 C 185.65625 223.183594 183.820312 223.105469 181.992188 222.839844 C 180.164062 222.574219 178.378906 222.125 176.644531 221.496094 C 174.90625 220.867188 173.25 220.070312 171.675781 219.101562 C 170.101562 218.136719 168.640625 217.023438 167.292969 215.757812 C 165.949219 214.1875 164.753906 212.507812 163.703125 210.726562 C 162.652344 208.945312 161.765625 207.089844 161.039062 205.152344 C 160.3125 203.214844 159.761719 201.230469 159.382812 199.199219 C 159.003906 197.167969 158.800781 195.117188 158.78125 193.046875 C 158.789062 192.691406 158.761719 192.335938 158.695312 191.984375 C 158.632812 191.628906 158.539062 191.289062 158.40625 190.953125 C 158.277344 190.621094 158.113281 190.304688 157.921875 190.003906 C 157.726562 189.699219 157.507812 189.421875 157.257812 189.164062 C 157.011719 188.90625 156.742188 188.671875 156.445312 188.46875 C 156.152344 188.265625 155.839844 188.089844 155.515625 187.949219 C 155.1875 187.804688 154.847656 187.695312 154.496094 187.617188 C 154.148438 187.542969 153.792969 187.5 153.433594 187.492188 C 153.078125 187.484375 152.722656 187.515625 152.371094 187.578125 C 152.015625 187.640625 151.675781 187.738281 151.339844 187.867188 C 151.007812 188 150.691406 188.164062 150.390625 188.355469 C 150.089844 188.550781 149.808594 188.769531 149.550781 189.019531 C 149.292969 189.265625 149.0625 189.539062 148.859375 189.832031 C 148.652344 190.125 148.480469 190.4375 148.335938 190.765625 C 148.195312 191.09375 148.085938 191.433594 148.007812 191.78125 C 147.933594 192.132812 147.890625 192.488281 147.886719 192.84375 C 147.890625 195.628906 148.144531 198.390625 148.648438 201.128906 C 149.152344 203.867188 149.898438 206.539062 150.882812 209.144531 C 151.871094 211.746094 153.082031 214.242188 154.523438 216.625 C 155.960938 219.011719 157.601562 221.246094 159.445312 223.332031 C 161.292969 225.136719 163.304688 226.730469 165.480469 228.121094 C 167.65625 229.507812 169.949219 230.664062 172.363281 231.578125 C 174.777344 232.496094 177.257812 233.15625 179.808594 233.5625 C 182.355469 233.96875 184.921875 234.113281 187.5 233.988281 C 190.078125 234.109375 192.640625 233.96875 195.1875 233.558594 C 197.734375 233.152344 200.214844 232.492188 202.625 231.574219 C 205.035156 230.660156 207.332031 229.507812 209.503906 228.117188 C 211.679688 226.730469 213.691406 225.136719 215.535156 223.332031 C 217.378906 221.246094 219.015625 219.007812 220.453125 216.625 C 221.890625 214.238281 223.105469 211.746094 224.089844 209.140625 C 225.078125 206.539062 225.824219 203.867188 226.328125 201.128906 C 226.832031 198.390625 227.089844 195.628906 227.09375 192.84375 C 227.085938 192.488281 227.042969 192.132812 226.964844 191.785156 C 226.886719 191.4375 226.777344 191.101562 226.632812 190.773438 C 226.488281 190.445312 226.316406 190.136719 226.109375 189.84375 C 225.90625 189.550781 225.675781 189.28125 225.417969 189.03125 C 225.160156 188.785156 224.882812 188.5625 224.582031 188.371094 C 224.28125 188.175781 223.964844 188.015625 223.632812 187.882812 C 223.300781 187.753906 222.960938 187.652344 222.609375 187.589844 C 222.257812 187.523438 221.902344 187.496094 221.546875 187.5 Z M 221.546875 187.5 " fill-opacity="1" fill-rule="nonzero"/><path stroke-linecap="round" transform="matrix(12.499999, 0, 0, 12.499999, 37.500002, 37.499998)" fill="none" stroke-linejoin="round" d="M 2 10.000001 L 2 13.000001 " stroke="#ffffff" stroke-width="2" stroke-opacity="1" stroke-miterlimit="4"/><path stroke-linecap="round" transform="matrix(12.499999, 0, 0, 12.499999, 37.500002, 37.499998)" fill="none" stroke-linejoin="round" d="M 6 6.000001 L 6 17.000002 " stroke="#ffffff" stroke-width="2" stroke-opacity="1" stroke-miterlimit="4"/><path stroke-linecap="round" transform="matrix(12.499999, 0, 0, 12.499999, 37.500002, 37.499998)" fill="none" stroke-linejoin="round" d="M 10.000001 3 L 10.000001 21.000002 " stroke="#ffffff" stroke-width="2" stroke-opacity="1" stroke-miterlimit="4"/><path stroke-linecap="round" transform="matrix(12.499999, 0, 0, 12.499999, 37.500002, 37.499998)" fill="none" stroke-linejoin="round" d="M 14.000001 8.000001 L 14.000001 15.000002 " stroke="#ffffff" stroke-width="2" stroke-opacity="1" stroke-miterlimit="4"/><path stroke-linecap="round" transform="matrix(12.499999, 0, 0, 12.499999, 37.500002, 37.499998)" fill="none" stroke-linejoin="round" d="M 18.000001 5.000001 L 18.000001 18.000002 " stroke="#ffffff" stroke-width="2" stroke-opacity="1" stroke-miterlimit="4"/><path stroke-linecap="round" transform="matrix(12.499999, 0, 0, 12.499999, 37.500002, 37.499998)" fill="none" stroke-linejoin="round" d="M 22.000002 10.000001 L 22.000002 13.000001 " stroke="#ffffff" stroke-width="2" stroke-opacity="1" stroke-miterlimit="4"/><path fill="#ffffff" d="M 312.78125 103.222656 C 313.695312 112.585938 321.101562 119.992188 330.460938 120.90625 C 330.6875 120.929688 330.6875 121.257812 330.460938 121.277344 C 321.101562 122.191406 313.695312 129.601562 312.78125 138.960938 C 312.757812 139.1875 312.429688 139.1875 312.40625 138.960938 C 311.492188 129.601562 304.085938 122.195312 294.726562 121.277344 C 294.5 121.257812 294.5 120.925781 294.726562 120.90625 C 304.085938 119.992188 311.492188 112.585938 312.40625 103.222656 C 312.429688 102.996094 312.757812 102.996094 312.78125 103.222656 Z M 312.78125 103.222656 " fill-opacity="1" fill-rule="nonzero"/></svg>